<svg width="304" height="132" viewBox="0 0 304 132" fill="none" xmlns="http://www.w3.org/2000/svg">
<g clip-path="url(#clip0_9_36)">
<path fill-rule="evenodd" clip-rule="evenodd" d="M20 93.3333C10.7952 93.3333 3.33333 100.795 3.33333 110C3.33333 119.205 10.7952 126.667 20 126.667C29.2048 126.667 36.6667 119.205 36.6667 110C36.6667 100.795 29.2048 93.3333 20 93.3333ZM0 110C0 98.9543 8.95433 90 20 90C31.0457 90 40 98.9543 40 110C40 121.046 31.0457 130 20 130C8.95433 130 0 121.046 0 110Z" fill="white"/>
<path fill-rule="evenodd" clip-rule="evenodd" d="M15.9861 127.893C15.8248 127.685 15.8248 125.831 15.9861 122.332C14.2595 122.391 13.1687 122.272 12.7136 121.972C12.0308 121.523 11.3474 120.139 10.7409 119.163C10.1345 118.188 8.78858 118.033 8.24504 117.815C7.70151 117.597 7.56507 116.708 9.74275 117.38C11.9203 118.053 12.0266 119.884 12.7136 120.312C13.4005 120.74 15.0429 120.553 15.7873 120.21C16.5318 119.867 16.477 118.59 16.6097 118.084C16.7776 117.612 16.1861 117.507 16.1731 117.503C15.4462 117.503 11.6282 116.673 10.5796 112.976C9.53083 109.278 10.8817 106.862 11.6024 105.823C12.0829 105.13 12.0404 103.654 11.4749 101.395C13.5279 101.132 15.1122 101.779 16.2278 103.333C16.2289 103.342 17.6904 102.464 20.0002 102.464C22.31 102.464 23.1294 103.18 23.7618 103.333C24.3942 103.487 24.9 100.612 28.8057 101.395C27.9902 102.997 27.3074 105 27.8286 105.823C28.3498 106.646 30.3954 109.262 29.1388 112.976C28.3012 115.451 26.6544 116.96 24.1987 117.503C23.9171 117.593 23.7762 117.738 23.7762 117.938C23.7762 118.238 24.157 118.271 24.7054 119.676C25.0711 120.614 25.0975 123.29 24.7847 127.706C23.9922 127.908 23.3757 128.043 22.9351 128.112C22.1539 128.235 21.3057 128.304 20.4724 128.33C19.6391 128.357 19.3497 128.354 18.1975 128.247C17.4295 128.175 16.6923 128.057 15.9861 127.893Z" fill="white"/>
</g>
<path d="M72.956 20.2256L73.6491 12.6788H35.3509L37.3871 35.7075H63.9013L62.9482 45.54L54.4134 47.8256L45.9219 45.54L45.3587 39.5025H37.777L38.7301 51.4912L54.4134 55.8037H54.5866V55.7606L70.1399 51.4912L72.3061 28.0312H44.4055L43.7557 20.2256H72.956ZM24 0H85L79.4545 62.0137L54.4134 69L29.5455 62.0137L24 0Z" fill="white"/>
<path d="M214.889 110V118.889M214.889 103.333V103.356M226 98.8889V121.111C226 123.469 225.063 125.73 223.397 127.397C221.73 129.063 219.469 130 217.111 130H194.889C192.531 130 190.27 129.063 188.603 127.397C186.937 125.73 186 123.469 186 121.111V98.8889C186 96.5314 186.937 94.2705 188.603 92.6035C190.27 90.9365 192.531 90 194.889 90H217.111C219.469 90 221.73 90.9365 223.397 92.6035C225.063 94.2705 226 96.5314 226 98.8889Z" stroke="white" stroke-width="4" stroke-linecap="round" stroke-linejoin="round"/>
<path d="M194.889 118.889L197.389 112.222M197.389 112.222L201.556 101.111L205.722 112.222M197.389 112.222H205.722M208.222 118.889L205.722 112.222" stroke="white" stroke-width="4" stroke-linecap="round" stroke-linejoin="round"/>
<path d="M107 98.8889V121.111C107 123.469 106.063 125.73 104.397 127.397C102.73 129.063 100.469 130 98.1111 130H75.8889C73.5314 130 71.2705 129.063 69.6035 127.397C67.9365 125.73 67 123.469 67 121.111V98.8889C67 96.5314 67.9365 94.2705 69.6035 92.6035C71.2705 90.9365 73.5314 90 75.8889 90H98.1111C100.469 90 102.73 90.9365 104.397 92.6035C106.063 94.2705 107 96.5314 107 98.8889Z" stroke="white" stroke-width="4" stroke-linecap="round" stroke-linejoin="round"/>
<path d="M75.8889 118.889V110M75.8889 110V101.111H80.3333C81.5121 101.111 82.6425 101.579 83.476 102.413C84.3095 103.246 84.7778 104.377 84.7778 105.556C84.7778 106.734 84.3095 107.865 83.476 108.698C82.6425 109.532 81.5121 110 80.3333 110H75.8889ZM98.1111 107.778C97.4311 106.416 96.0378 105.556 94.5156 105.556H93.6667C92.7826 105.556 91.9348 105.907 91.3096 106.532C90.6845 107.157 90.3333 108.005 90.3333 108.889C90.3333 109.773 90.6845 110.621 91.3096 111.246C91.9348 111.871 92.7826 112.222 93.6667 112.222H94.7778C95.6618 112.222 96.5097 112.573 97.1348 113.199C97.7599 113.824 98.1111 114.672 98.1111 115.556C98.1111 116.44 97.7599 117.287 97.1348 117.913C96.5097 118.538 95.6618 118.889 94.7778 118.889H93.9289C93.1823 118.889 92.4505 118.681 91.8155 118.288C91.1804 117.896 90.6672 117.334 90.3333 116.667" stroke="white" stroke-width="4" stroke-linecap="round" stroke-linejoin="round"/>
<path fill-rule="evenodd" clip-rule="evenodd" d="M263.429 90C260.563 90 258.444 92.5085 258.54 95.2262C258.63 97.8414 258.513 101.224 257.661 103.984C256.804 106.75 255.36 108.503 253 108.729V111.271C255.36 111.495 256.806 113.248 257.659 116.016C258.513 118.776 258.63 122.159 258.538 124.772C258.444 127.492 260.563 130 263.429 130H292.787C295.653 130 297.772 127.492 297.676 124.772C297.586 122.159 297.703 118.776 298.555 116.016C299.41 113.248 300.852 111.497 303.212 111.271V108.729C300.852 108.503 299.41 106.75 298.555 103.984C297.703 101.222 297.586 97.8393 297.676 95.2262C297.772 92.5064 295.651 90 292.787 90H263.429ZM287.039 114.623C287.039 118.368 284.246 120.638 279.612 120.638H271.723C271.497 120.638 271.28 120.548 271.121 120.388C270.961 120.228 270.871 120.012 270.871 119.786V100.212C270.872 99.9864 270.962 99.7703 271.121 99.6111C271.281 99.4518 271.497 99.3624 271.723 99.3624H279.568C283.433 99.3624 285.97 101.455 285.97 104.67C285.97 106.926 284.263 108.945 282.089 109.3V109.417C285.05 109.742 287.039 111.792 287.039 114.623ZM278.754 102.059H274.256V108.415H278.045C280.974 108.415 282.589 107.235 282.589 105.126C282.589 103.151 281.2 102.059 278.754 102.059ZM274.256 110.936V117.939H278.922C281.97 117.939 283.587 116.715 283.587 114.416C283.587 112.114 281.926 110.936 278.725 110.936H274.256Z" fill="white"/>
<path d="M140.508 90H146.989V102.963H140.508C131.96 102.629 131.874 90.3509 140.508 90ZM140.508 116.481H146.989V103.518H140.508C131.874 103.869 131.96 116.147 140.508 116.481ZM154.025 90H147.544V102.963H154.025C162.688 102.5 162.58 90.2646 154.025 90ZM146.989 123.517V117.035H140.508C135.219 117.035 131.874 123.237 135.552 127.691C139.06 132.106 146.989 129.905 146.989 123.517H146.989ZM160.52 109.999C160.52 105.018 155.091 101.888 150.771 104.379C146.451 106.869 146.45 113.13 150.771 115.62C155.091 118.111 160.52 114.981 160.52 109.999Z" fill="white"/>
<path d="M181.426 61.5911L187 0H125L125.073 0.79925L130.565 61.5998L130.612 62.1057L155.765 69H156.162L181.374 62.1L181.42 61.594L181.426 61.5911ZM156.054 13.4521H174.069L173.527 19.6621L155.754 27.4591L156.051 28.8621H172.729L170.809 50.5713L155.99 54.625L141.177 50.577L140.244 40.181H146.343L146.832 45.4509L146.879 45.9626L155.867 48.3201H156.255L165.145 45.8821L165.188 45.3732L166.027 35.6385L166.094 34.845H139.734L139.181 28.5976L157.563 20.8322L157.272 19.4235H138.391L137.852 13.4435H156.034L156.054 13.4521Z" fill="white"/>
<path d="M217 0L224.6 60.6L247.5 69L270.4 60.6L278 0H217ZM244.7 51.2C244.7 52.3 244.1 53.2 243.2 53.8C242.3 54.3 241.2 54.4 240.2 53.8L232.6 49.6C231.1 48.8 230.6 47 231.4 45.5C232.2 44 234 43.5 235.5 44.3L238.7 46V20.6H230.3C228.6 20.6 227.3 19.3 227.3 17.6C227.3 15.9 228.6 14.6 230.3 14.6H241.7C243.4 14.6 244.7 15.9 244.7 17.6V51.2ZM264.6 20.7H256.2V31.4H260.5C261.2 31.4 262 31.6 262.6 31.9C263.3 32.2 263.8 32.7 264.3 33.3C264.7 33.9 265.1 34.5 265.2 35.2C265.4 35.9 265.4 36.6 265.3 37.2L263.7 49.5C263.5 50.7 262.7 51.7 261.5 52L253.9 54.1C252.3 54.5 250.7 53.6 250.2 52C249.8 50.4 250.7 48.8 252.3 48.3L258 46.7L259.2 37.4H255C253.6 37.4 252.3 36.8 251.4 35.8C250.5 34.8 250.1 33.6 250.1 32.3V19.8C250.1 18.5 250.6 17.3 251.4 16.3C252.3 15.3 253.6 14.7 255 14.7H264.5C266.2 14.7 267.5 16 267.5 17.7C267.6 19.4 266.2 20.7 264.6 20.7Z" fill="white"/>
<defs>
<clipPath id="clip0_9_36">
<rect width="40" height="40" fill="white" transform="translate(0 90)"/>
</clipPath>
</defs>
</svg>
